<svg xmlns="http://www.w3.org/2000/svg" xmlns:xlink="http://www.w3.org/1999/xlink" contentStyleType="text/css" data-diagram-type="SEQUENCE" height="1057px" preserveAspectRatio="none" style="width:769px;height:1057px;background:#FFFFFF;" version="1.1" viewBox="0 0 769 1057" width="769px" zoomAndPan="magnify"><title>Slow copy file into 'incoming' folder</title><defs/><g><text fill="#000000" font-family="sans-serif" font-size="14" font-weight="bold" lengthAdjust="spacing" textLength="282.6865" x="244.5974" y="27.9951">Slow copy file into 'incoming' folder</text><g><title>System</title><rect fill="#FFFFFF" height="629.6563" style="stroke:#181818;stroke-width:1;" width="10" x="104.1719" y="149.7266"/></g><g><title>Main.startWatching</title><rect fill="#FFFFFF" height="116.5313" style="stroke:#181818;stroke-width:1;" width="10" x="218.5796" y="178.8594"/></g><g><title>Main.startWatching</title><rect fill="#FFFFFF" height="58.2656" style="stroke:#181818;stroke-width:1;" width="10" x="218.5796" y="324.5234"/></g><g><title>Main.startWatching</title><rect fill="#FFFFFF" height="116.5313" style="stroke:#181818;stroke-width:1;" width="10" x="218.5796" y="591.5859"/></g><g><title>AppMan.addApp</title><rect fill="#FFFFFF" height="87.3984" style="stroke:#181818;stroke-width:1;" width="10" x="364.4019" y="207.9922"/></g><g><title>AppMan.addApp</title><rect fill="#FFFFFF" height="29.1328" style="stroke:#181818;stroke-width:1;" width="10" x="364.4019" y="353.6563"/></g><g><title>AppMan.addApp</title><rect fill="#FFFFFF" height="87.3984" style="stroke:#181818;stroke-width:1;" width="10" x="364.4019" y="620.7188"/></g><g><title>bundle</title><rect fill="#FFFFFF" height="307.1953" style="stroke:#181818;stroke-width:1;" width="10" x="465.9307" y="237.125"/></g><g><title>bundle</title><rect fill="#FFFFFF" height="200.7969" style="stroke:#181818;stroke-width:1;" width="10" x="465.9307" y="649.8516"/></g><g><title>waitAndPerform</title><rect fill="#FFFFFF" height="278.0625" style="stroke:#181818;stroke-width:1;" width="10" x="566.1641" y="266.2578"/></g><g><title>waitAndPerform</title><rect fill="#FFFFFF" height="28" style="stroke:#181818;stroke-width:1;" width="10" x="571.1641" y="419.9219"/></g><g><title>waitAndPerform</title><rect fill="#FFFFFF" height="287.8672" style="stroke:#181818;stroke-width:1;" width="10" x="566.1641" y="678.9844"/></g><g><title>waitAndPerform</title><rect fill="#FFFFFF" height="34.1328" style="stroke:#181818;stroke-width:1;" width="10" x="571.1641" y="745.25"/></g><rect fill="#90EE90" height="94.2031" style="stroke:#000000;stroke-width:1.5;" width="264.9395" x="497.9419" y="865.6484"/><rect fill="#FFC0CB" height="47.9375" style="stroke:none;stroke-width:1;" width="264.9395" x="497.9419" y="911.9141"/><g><title>Client</title><rect fill="#000000" fill-opacity="0.00000" height="858.2578" width="8" x="24.2651" y="118.5938"/><line style="stroke:#181818;stroke-width:0.5;stroke-dasharray:5.0,5.0;" x1="28" x2="28" y1="118.5938" y2="976.8516"/></g><g><title>System</title><rect fill="#000000" fill-opacity="0.00000" height="858.2578" width="8" x="105.1719" y="118.5938"/><line style="stroke:#181818;stroke-width:0.5;stroke-dasharray:5.0,5.0;" x1="109.0688" x2="109.0688" y1="118.5938" y2="976.8516"/></g><g><title>Main.startWatching</title><rect fill="#000000" fill-opacity="0.00000" height="858.2578" width="8" x="219.5796" y="118.5938"/><line style="stroke:#181818;stroke-width:0.5;stroke-dasharray:5.0,5.0;" x1="223.2749" x2="223.2749" y1="118.5938" y2="976.8516"/></g><g><title>AppMan.addApp</title><rect fill="#000000" fill-opacity="0.00000" height="858.2578" width="8" x="365.4019" y="118.5938"/><line style="stroke:#181818;stroke-width:0.5;stroke-dasharray:5.0,5.0;" x1="368.8843" x2="368.8843" y1="118.5938" y2="976.8516"/></g><g><title>bundle</title><rect fill="#000000" fill-opacity="0.00000" height="858.2578" width="8" x="466.9307" y="118.5938"/><line style="stroke:#181818;stroke-width:0.5;stroke-dasharray:5.0,5.0;" x1="470.9194" x2="470.9194" y1="118.5938" y2="976.8516"/></g><g><title>waitAndPerform</title><rect fill="#000000" fill-opacity="0.00000" height="858.2578" width="8" x="567.1641" y="118.5938"/><line style="stroke:#181818;stroke-width:0.5;stroke-dasharray:5.0,5.0;" x1="570.9419" x2="570.9419" y1="118.5938" y2="976.8516"/></g><g><title>perform</title><rect fill="#000000" fill-opacity="0.00000" height="858.2578" width="8" x="713.8096" y="118.5938"/><line style="stroke:#181818;stroke-width:0.5;stroke-dasharray:5.0,5.0;" x1="717.7378" x2="717.7378" y1="118.5938" y2="976.8516"/></g><g class="participant participant-head" data-participant="Client"><text fill="#000000" font-family="sans-serif" font-size="14" lengthAdjust="spacing" textLength="40.5303" x="5" y="115.292">Client</text><ellipse cx="28.2651" cy="50.7969" fill="#E2E2F0" rx="8" ry="8" style="stroke:#181818;stroke-width:0.5;"/><path d="M28.2651,58.7969 L28.2651,85.7969 M15.2651,66.7969 L41.2651,66.7969 M28.2651,85.7969 L15.2651,100.7969 M28.2651,85.7969 L41.2651,100.7969" fill="none" style="stroke:#181818;stroke-width:0.5;"/></g><g class="participant participant-tail" data-participant="Client"><text fill="#000000" font-family="sans-serif" font-size="14" lengthAdjust="spacing" textLength="40.5303" x="5" y="988.8467">Client</text><ellipse cx="28.2651" cy="1000.6484" fill="#E2E2F0" rx="8" ry="8" style="stroke:#181818;stroke-width:0.5;"/><path d="M28.2651,1008.6484 L28.2651,1035.6484 M15.2651,1016.6484 L41.2651,1016.6484 M28.2651,1035.6484 L15.2651,1050.6484 M28.2651,1035.6484 L41.2651,1050.6484" fill="none" style="stroke:#181818;stroke-width:0.5;"/></g><g class="participant participant-head" data-participant="System"><rect fill="#E2E2F0" height="30.2969" rx="2.5" ry="2.5" style="stroke:#181818;stroke-width:0.5;" width="66.2061" x="76.0688" y="87.2969"/><text fill="#000000" font-family="sans-serif" font-size="14" lengthAdjust="spacing" textLength="52.2061" x="83.0688" y="107.292">System</text></g><g class="participant participant-tail" data-participant="System"><rect fill="#E2E2F0" height="30.2969" rx="2.5" ry="2.5" style="stroke:#181818;stroke-width:0.5;" width="66.2061" x="76.0688" y="975.8516"/><text fill="#000000" font-family="sans-serif" font-size="14" lengthAdjust="spacing" textLength="52.2061" x="83.0688" y="995.8467">System</text></g><g class="participant participant-head" data-participant="watcher"><text fill="#000000" font-family="sans-serif" font-size="14" lengthAdjust="spacing" textLength="136.6094" x="152.2749" y="115.292">Main.startWatching</text><ellipse cx="223.5796" cy="86.2969" fill="#E2E2F0" rx="12" ry="12" style="stroke:#181818;stroke-width:0.5;"/><polygon fill="#181818" points="219.5796,74.2969,225.5796,69.2969,223.5796,74.2969,225.5796,79.2969,219.5796,74.2969" style="stroke:#181818;stroke-width:1;"/></g><g class="participant participant-tail" data-participant="watcher"><text fill="#000000" font-family="sans-serif" font-size="14" lengthAdjust="spacing" textLength="136.6094" x="152.2749" y="988.8467">Main.startWatching</text><ellipse cx="223.5796" cy="1008.1484" fill="#E2E2F0" rx="12" ry="12" style="stroke:#181818;stroke-width:0.5;"/><polygon fill="#181818" points="219.5796,996.1484,225.5796,991.1484,223.5796,996.1484,225.5796,1001.1484,219.5796,996.1484" style="stroke:#181818;stroke-width:1;"/></g><g class="participant participant-head" data-participant="addApp"><rect fill="#E2E2F0" height="30.2969" rx="2.5" ry="2.5" style="stroke:#181818;stroke-width:0.5;" width="129.0352" x="304.8843" y="87.2969"/><text fill="#000000" font-family="sans-serif" font-size="14" lengthAdjust="spacing" textLength="115.0352" x="311.8843" y="107.292">AppMan.addApp</text></g><g class="participant participant-tail" data-participant="addApp"><rect fill="#E2E2F0" height="30.2969" rx="2.5" ry="2.5" style="stroke:#181818;stroke-width:0.5;" width="129.0352" x="304.8843" y="975.8516"/><text fill="#000000" font-family="sans-serif" font-size="14" lengthAdjust="spacing" textLength="115.0352" x="311.8843" y="995.8467">AppMan.addApp</text></g><g class="participant participant-head" data-participant="bundle"><text fill="#000000" font-family="sans-serif" font-size="14" lengthAdjust="spacing" textLength="48.0225" x="443.9194" y="115.292">bundle</text><ellipse cx="470.9307" cy="86.2969" fill="#E2E2F0" rx="12" ry="12" style="stroke:#181818;stroke-width:0.5;"/><line style="stroke:#181818;stroke-width:0.5;" x1="458.9307" x2="482.9307" y1="100.2969" y2="100.2969"/></g><g class="participant participant-tail" data-participant="bundle"><text fill="#000000" font-family="sans-serif" font-size="14" lengthAdjust="spacing" textLength="48.0225" x="443.9194" y="988.8467">bundle</text><ellipse cx="470.9307" cy="1008.1484" fill="#E2E2F0" rx="12" ry="12" style="stroke:#181818;stroke-width:0.5;"/><line style="stroke:#181818;stroke-width:0.5;" x1="458.9307" x2="482.9307" y1="1022.1484" y2="1022.1484"/></g><g class="participant participant-head" data-participant="waitAndPerform"><rect fill="#E2E2F0" height="30.2969" rx="2.5" ry="2.5" style="stroke:#181818;stroke-width:0.5;" width="126.4443" x="507.9419" y="87.2969"/><text fill="#000000" font-family="sans-serif" font-size="14" lengthAdjust="spacing" textLength="112.4443" x="514.9419" y="107.292">waitAndPerform</text></g><g class="participant participant-tail" data-participant="waitAndPerform"><rect fill="#E2E2F0" height="30.2969" rx="2.5" ry="2.5" style="stroke:#181818;stroke-width:0.5;" width="126.4443" x="507.9419" y="975.8516"/><text fill="#000000" font-family="sans-serif" font-size="14" lengthAdjust="spacing" textLength="112.4443" x="514.9419" y="995.8467">waitAndPerform</text></g><g class="participant participant-head" data-participant="perform"><rect fill="#E2E2F0" height="30.2969" rx="2.5" ry="2.5" style="stroke:#181818;stroke-width:0.5;" width="70.1436" x="682.7378" y="87.2969"/><text fill="#000000" font-family="sans-serif" font-size="14" lengthAdjust="spacing" textLength="56.1436" x="689.7378" y="107.292">perform</text></g><g class="participant participant-tail" data-participant="perform"><rect fill="#E2E2F0" height="30.2969" rx="2.5" ry="2.5" style="stroke:#181818;stroke-width:0.5;" width="70.1436" x="682.7378" y="975.8516"/><text fill="#000000" font-family="sans-serif" font-size="14" lengthAdjust="spacing" textLength="56.1436" x="689.7378" y="995.8467">perform</text></g><g><title>System</title><rect fill="#FFFFFF" height="629.6563" style="stroke:#181818;stroke-width:1;" width="10" x="104.1719" y="149.7266"/></g><g><title>Main.startWatching</title><rect fill="#FFFFFF" height="116.5313" style="stroke:#181818;stroke-width:1;" width="10" x="218.5796" y="178.8594"/></g><g><title>Main.startWatching</title><rect fill="#FFFFFF" height="58.2656" style="stroke:#181818;stroke-width:1;" width="10" x="218.5796" y="324.5234"/></g><g><title>Main.startWatching</title><rect fill="#FFFFFF" height="116.5313" style="stroke:#181818;stroke-width:1;" width="10" x="218.5796" y="591.5859"/></g><g><title>AppMan.addApp</title><rect fill="#FFFFFF" height="87.3984" style="stroke:#181818;stroke-width:1;" width="10" x="364.4019" y="207.9922"/></g><g><title>AppMan.addApp</title><rect fill="#FFFFFF" height="29.1328" style="stroke:#181818;stroke-width:1;" width="10" x="364.4019" y="353.6563"/></g><g><title>AppMan.addApp</title><rect fill="#FFFFFF" height="87.3984" style="stroke:#181818;stroke-width:1;" width="10" x="364.4019" y="620.7188"/></g><g><title>bundle</title><rect fill="#FFFFFF" height="307.1953" style="stroke:#181818;stroke-width:1;" width="10" x="465.9307" y="237.125"/></g><g><title>bundle</title><rect fill="#FFFFFF" height="200.7969" style="stroke:#181818;stroke-width:1;" width="10" x="465.9307" y="649.8516"/></g><g><title>waitAndPerform</title><rect fill="#FFFFFF" height="278.0625" style="stroke:#181818;stroke-width:1;" width="10" x="566.1641" y="266.2578"/></g><g><title>waitAndPerform</title><rect fill="#FFFFFF" height="28" style="stroke:#181818;stroke-width:1;" width="10" x="571.1641" y="419.9219"/></g><g><title>waitAndPerform</title><rect fill="#FFFFFF" height="287.8672" style="stroke:#181818;stroke-width:1;" width="10" x="566.1641" y="678.9844"/></g><g><title>waitAndPerform</title><rect fill="#FFFFFF" height="34.1328" style="stroke:#181818;stroke-width:1;" width="10" x="571.1641" y="745.25"/></g><g class="message" data-participant-1="Client" data-participant-2="System"><polygon fill="#181818" points="92.1719,145.7266,102.1719,149.7266,92.1719,153.7266,96.1719,149.7266" style="stroke:#181818;stroke-width:1;"/><line style="stroke:#181818;stroke-width:1;" x1="28.2651" x2="98.1719" y1="149.7266" y2="149.7266"/><text fill="#000000" font-family="sans-serif" font-size="13" lengthAdjust="spacing" textLength="56.9067" x="35.2651" y="144.6606">Copy file</text></g><g class="message" data-participant-1="System" data-participant-2="watcher"><polygon fill="#181818" points="206.5796,174.8594,216.5796,178.8594,206.5796,182.8594,210.5796,178.8594" style="stroke:#181818;stroke-width:1;"/><line style="stroke:#181818;stroke-width:1;" x1="114.1719" x2="212.5796" y1="178.8594" y2="178.8594"/><text fill="#000000" font-family="sans-serif" font-size="13" lengthAdjust="spacing" textLength="73.6011" x="121.1719" y="173.7935">add/modify</text></g><g class="message" data-participant-1="watcher" data-participant-2="addApp"><polygon fill="#181818" points="352.4019,203.9922,362.4019,207.9922,352.4019,211.9922,356.4019,207.9922" style="stroke:#181818;stroke-width:1;"/><line style="stroke:#181818;stroke-width:1;" x1="228.5796" x2="358.4019" y1="207.9922" y2="207.9922"/><text fill="#000000" font-family="sans-serif" font-size="13" lengthAdjust="spacing" textLength="108.4434" x="235.5796" y="202.9263">incoming bundle</text></g><g class="message" data-participant-1="addApp" data-participant-2="bundle"><polygon fill="#181818" points="453.9307,233.125,463.9307,237.125,453.9307,241.125,457.9307,237.125" style="stroke:#181818;stroke-width:1;"/><line style="stroke:#181818;stroke-width:1;" x1="374.4019" x2="459.9307" y1="237.125" y2="237.125"/><text fill="#000000" font-family="sans-serif" font-size="13" lengthAdjust="spacing" textLength="26.2412" x="381.4019" y="232.0591">lock</text></g><g class="message" data-participant-1="addApp" data-participant-2="waitAndPerform"><polygon fill="#181818" points="554.1641,262.2578,564.1641,266.2578,554.1641,270.2578,558.1641,266.2578" style="stroke:#181818;stroke-width:1;"/><line style="stroke:#181818;stroke-width:1;" x1="374.4019" x2="560.1641" y1="266.2578" y2="266.2578"/><text fill="#000000" font-family="sans-serif" font-size="13" lengthAdjust="spacing" textLength="39.4697" x="381.4019" y="261.1919">forkIO</text></g><g class="message" data-participant-1="addApp" data-participant-2="watcher"><polygon fill="#181818" points="234.5796,291.3906,224.5796,295.3906,234.5796,299.3906,230.5796,295.3906" style="stroke:#181818;stroke-width:1;"/><line style="stroke:#181818;stroke-width:1;stroke-dasharray:2.0,2.0;" x1="228.5796" x2="368.4019" y1="295.3906" y2="295.3906"/><text fill="#000000" font-family="sans-serif" font-size="13" lengthAdjust="spacing" textLength="40.2632" x="240.5796" y="290.3247">return</text></g><g class="message" data-participant-1="System" data-participant-2="watcher"><polygon fill="#181818" points="206.5796,320.5234,216.5796,324.5234,206.5796,328.5234,210.5796,324.5234" style="stroke:#181818;stroke-width:1;"/><line style="stroke:#181818;stroke-width:1;" x1="114.1719" x2="212.5796" y1="324.5234" y2="324.5234"/><text fill="#000000" font-family="sans-serif" font-size="13" lengthAdjust="spacing" textLength="44.751" x="121.1719" y="319.4575">modify</text></g><g class="message" data-participant-1="watcher" data-participant-2="addApp"><polygon fill="#181818" points="352.4019,349.6563,362.4019,353.6563,352.4019,357.6563,356.4019,353.6563" style="stroke:#181818;stroke-width:1;"/><line style="stroke:#181818;stroke-width:1;" x1="228.5796" x2="358.4019" y1="353.6563" y2="353.6563"/><text fill="#000000" font-family="sans-serif" font-size="13" lengthAdjust="spacing" textLength="108.4434" x="235.5796" y="348.5903">incoming bundle</text></g><g class="message" data-participant-1="addApp" data-participant-2="watcher"><polygon fill="#181818" points="234.5796,378.7891,224.5796,382.7891,234.5796,386.7891,230.5796,382.7891" style="stroke:#181818;stroke-width:1;"/><line style="stroke:#181818;stroke-width:1;stroke-dasharray:2.0,2.0;" x1="228.5796" x2="368.4019" y1="382.7891" y2="382.7891"/><text fill="#000000" font-family="sans-serif" font-size="13" lengthAdjust="spacing" textLength="95.4561" x="240.5796" y="377.7231">already locked</text></g><line style="stroke:#A80036;stroke-width:2;" x1="360.4019" x2="378.4019" y1="373.7891" y2="391.7891"/><line style="stroke:#A80036;stroke-width:2;" x1="360.4019" x2="378.4019" y1="391.7891" y2="373.7891"/><g class="message" data-participant-1="waitAndPerform" data-participant-2="waitAndPerform"><line style="stroke:#181818;stroke-width:1;" x1="581.1641" x2="623.1641" y1="411.9219" y2="411.9219"/><line style="stroke:#181818;stroke-width:1;" x1="623.1641" x2="623.1641" y1="411.9219" y2="424.9219"/><line style="stroke:#181818;stroke-width:1;" x1="582.1641" x2="623.1641" y1="424.9219" y2="424.9219"/><polygon fill="#181818" points="592.1641,420.9219,582.1641,424.9219,592.1641,428.9219,588.1641,424.9219" style="stroke:#181818;stroke-width:1;"/><text fill="#000000" font-family="sans-serif" font-size="13" lengthAdjust="spacing" textLength="98.5601" x="588.1641" y="406.856">waitUntilStable</text></g><g class="message" data-participant-1="waitAndPerform" data-participant-2="waitAndPerform"><line style="stroke:#181818;stroke-width:1;" x1="576.1641" x2="618.1641" y1="484.0547" y2="484.0547"/><line style="stroke:#181818;stroke-width:1;" x1="618.1641" x2="618.1641" y1="484.0547" y2="497.0547"/><line style="stroke:#181818;stroke-width:1;" x1="577.1641" x2="618.1641" y1="497.0547" y2="497.0547"/><polygon fill="#181818" points="587.1641,493.0547,577.1641,497.0547,587.1641,501.0547,583.1641,497.0547" style="stroke:#181818;stroke-width:1;"/><text fill="#000000" font-family="sans-serif" font-size="13" lengthAdjust="spacing" textLength="112.6455" x="583.1641" y="478.9888">runable &lt;- isGzip</text></g><g class="message" data-participant-1="waitAndPerform" data-participant-2="bundle"><polygon fill="#181818" points="481.9307,540.3203,471.9307,544.3203,481.9307,548.3203,477.9307,544.3203" style="stroke:#181818;stroke-width:1;"/><line style="stroke:#181818;stroke-width:1;" x1="475.9307" x2="570.1641" y1="544.3203" y2="544.3203"/><text fill="#000000" font-family="sans-serif" font-size="13" lengthAdjust="spacing" textLength="42.7197" x="487.9307" y="539.2544">unlock</text></g><path d="M581,510.0547 L581,565.0547 L760,565.0547 L760,520.0547 L750,510.0547 L581,510.0547" fill="#FEFFDD" style="stroke:#181818;stroke-width:0.5;"/><path d="M750,510.0547 L750,520.0547 L760,520.0547 L750,510.0547" fill="#FEFFDD" style="stroke:#181818;stroke-width:0.5;"/><text fill="#000000" font-family="sans-serif" font-size="13" lengthAdjust="spacing" textLength="87.1533" x="587" y="527.1216">nothing to do</text><text fill="#000000" font-family="sans-serif" font-size="13" lengthAdjust="spacing" textLength="158.8564" x="587" y="542.2544">as the file is copying yet</text><text fill="#000000" font-family="sans-serif" font-size="13" lengthAdjust="spacing" textLength="120.999" x="587" y="557.3872">as runable is False</text><g class="message" data-participant-1="System" data-participant-2="watcher"><polygon fill="#181818" points="206.5796,587.5859,216.5796,591.5859,206.5796,595.5859,210.5796,591.5859" style="stroke:#181818;stroke-width:1;"/><line style="stroke:#181818;stroke-width:1;" x1="114.1719" x2="212.5796" y1="591.5859" y2="591.5859"/><text fill="#000000" font-family="sans-serif" font-size="13" lengthAdjust="spacing" textLength="44.751" x="121.1719" y="586.52">modify</text></g><g class="message" data-participant-1="watcher" data-participant-2="addApp"><polygon fill="#181818" points="352.4019,616.7188,362.4019,620.7188,352.4019,624.7188,356.4019,620.7188" style="stroke:#181818;stroke-width:1;"/><line style="stroke:#181818;stroke-width:1;" x1="228.5796" x2="358.4019" y1="620.7188" y2="620.7188"/><text fill="#000000" font-family="sans-serif" font-size="13" lengthAdjust="spacing" textLength="108.4434" x="235.5796" y="615.6528">incoming bundle</text></g><g class="message" data-participant-1="addApp" data-participant-2="bundle"><polygon fill="#181818" points="453.9307,645.8516,463.9307,649.8516,453.9307,653.8516,457.9307,649.8516" style="stroke:#181818;stroke-width:1;"/><line style="stroke:#181818;stroke-width:1;" x1="374.4019" x2="459.9307" y1="649.8516" y2="649.8516"/><text fill="#000000" font-family="sans-serif" font-size="13" lengthAdjust="spacing" textLength="26.2412" x="381.4019" y="644.7856">lock</text></g><g class="message" data-participant-1="addApp" data-participant-2="waitAndPerform"><polygon fill="#181818" points="554.1641,674.9844,564.1641,678.9844,554.1641,682.9844,558.1641,678.9844" style="stroke:#181818;stroke-width:1;"/><line style="stroke:#181818;stroke-width:1;" x1="374.4019" x2="560.1641" y1="678.9844" y2="678.9844"/><text fill="#000000" font-family="sans-serif" font-size="13" lengthAdjust="spacing" textLength="39.4697" x="381.4019" y="673.9185">forkIO</text></g><g class="message" data-participant-1="addApp" data-participant-2="watcher"><polygon fill="#181818" points="234.5796,704.1172,224.5796,708.1172,234.5796,712.1172,230.5796,708.1172" style="stroke:#181818;stroke-width:1;"/><line style="stroke:#181818;stroke-width:1;stroke-dasharray:2.0,2.0;" x1="228.5796" x2="368.4019" y1="708.1172" y2="708.1172"/><text fill="#000000" font-family="sans-serif" font-size="13" lengthAdjust="spacing" textLength="40.2632" x="240.5796" y="703.0513">return</text></g><g class="message" data-participant-1="waitAndPerform" data-participant-2="waitAndPerform"><line style="stroke:#181818;stroke-width:1;" x1="576.1641" x2="623.1641" y1="732.25" y2="732.25"/><line style="stroke:#181818;stroke-width:1;" x1="623.1641" x2="623.1641" y1="732.25" y2="745.25"/><line style="stroke:#181818;stroke-width:1;" x1="582.1641" x2="623.1641" y1="745.25" y2="745.25"/><polygon fill="#181818" points="592.1641,741.25,582.1641,745.25,592.1641,749.25,588.1641,745.25" style="stroke:#181818;stroke-width:1;"/><text fill="#000000" font-family="sans-serif" font-size="13" lengthAdjust="spacing" textLength="98.5601" x="588.1641" y="727.1841">waitUntilStable</text></g><g class="message" data-participant-1="System" data-participant-2="waitAndPerform"><line style="stroke:#181818;stroke-width:1;" x1="564.1641" x2="554.1641" y1="779.3828" y2="775.3828"/><line style="stroke:#181818;stroke-width:1;" x1="564.1641" x2="554.1641" y1="779.3828" y2="783.3828"/><line style="stroke:#181818;stroke-width:1;stroke-dasharray:2.0,2.0;" x1="109.1719" x2="565.1641" y1="779.3828" y2="779.3828"/><text fill="#000000" font-family="sans-serif" font-size="13" lengthAdjust="spacing" textLength="75.2261" x="116.1719" y="774.3169">(end of file)</text></g><g class="message" data-participant-1="waitAndPerform" data-participant-2="waitAndPerform"><line style="stroke:#181818;stroke-width:1;" x1="576.1641" x2="618.1641" y1="808.5156" y2="808.5156"/><line style="stroke:#181818;stroke-width:1;" x1="618.1641" x2="618.1641" y1="808.5156" y2="821.5156"/><line style="stroke:#181818;stroke-width:1;" x1="577.1641" x2="618.1641" y1="821.5156" y2="821.5156"/><polygon fill="#181818" points="587.1641,817.5156,577.1641,821.5156,587.1641,825.5156,583.1641,821.5156" style="stroke:#181818;stroke-width:1;"/><text fill="#000000" font-family="sans-serif" font-size="13" lengthAdjust="spacing" textLength="112.6455" x="583.1641" y="803.4497">runable &lt;- isGzip</text></g><g class="message" data-participant-1="waitAndPerform" data-participant-2="bundle"><polygon fill="#181818" points="481.9307,846.6484,471.9307,850.6484,481.9307,854.6484,477.9307,850.6484" style="stroke:#181818;stroke-width:1;"/><line style="stroke:#181818;stroke-width:1;" x1="475.9307" x2="565.1641" y1="850.6484" y2="850.6484"/><text fill="#000000" font-family="sans-serif" font-size="13" lengthAdjust="spacing" textLength="42.7197" x="487.9307" y="845.5825">unlock</text></g><path d="M497.9419,865.6484 L562.3848,865.6484 L562.3848,872.7813 L552.3848,882.7813 L497.9419,882.7813 L497.9419,865.6484" fill="#EEEEEE" style="stroke:#000000;stroke-width:1.5;"/><rect fill="none" height="94.2031" style="stroke:#000000;stroke-width:1.5;" width="264.9395" x="497.9419" y="865.6484"/><text fill="#000000" font-family="sans-serif" font-size="13" font-weight="bold" lengthAdjust="spacing" textLength="19.4429" x="512.9419" y="878.7153">alt</text><text fill="#000000" font-family="sans-serif" font-size="11" font-weight="bold" lengthAdjust="spacing" textLength="57.6694" x="577.3848" y="877.8589">[runable]</text><g class="message" data-participant-1="waitAndPerform" data-participant-2="perform"><polygon fill="#181818" points="705.8096,899.9141,715.8096,903.9141,705.8096,907.9141,709.8096,903.9141" style="stroke:#181818;stroke-width:1;"/><line style="stroke:#181818;stroke-width:1;" x1="576.1641" x2="711.8096" y1="903.9141" y2="903.9141"/><text fill="#000000" font-family="sans-serif" font-size="13" lengthAdjust="spacing" textLength="21.8232" x="583.1641" y="898.8481">run</text></g><line style="stroke:#000000;stroke-width:1;stroke-dasharray:2.0,2.0;" x1="497.9419" x2="762.8813" y1="912.9141" y2="912.9141"/><text fill="#000000" font-family="sans-serif" font-size="11" font-weight="bold" lengthAdjust="spacing" textLength="160.6333" x="502.9419" y="923.1245">[probably this is not gzip]</text><polygon fill="#FEFFDD" points="552,931.7188,588,931.7188,598,942.7188,588,954.7188,552,954.7188,542,942.7188,552,931.7188" style="stroke:#181818;stroke-width:0.5;"/><text fill="#000000" font-family="sans-serif" font-size="13" lengthAdjust="spacing" textLength="32.4429" x="554" y="947.7856">nope</text><!--SRC=[pLJ1Rjim3BthAmZqaEsGv6uC1Oe2AmQiM85Ws5cnw5Y8B6aItS3x-b6sbIffbbwsOe0HYoRv-4W-PT4I-LYjrzv8ItrdLhNhrX5_zcXhN2ejTq5sGf0cWx0nxW2rymCqcarjoS52MqxHThU0nXc5GGXPamjmRpHQ4bu6qhNs30-R8H9sedQMWZFmABLTHUA07vBgbZ50HZYaCyEKYNVUFqgxaahnAGLD9y45D0smxQqoACHK4fQtSwKAxZFPH4e_Iy9COdgbsBbWbK3NdLEw6LwYCvlvdUAdsXNandFvOyvCRcRB6LD01SRL-vUmd7OCEqXDTrOzOMXSOFByk__ohUHI-e-9PGi1gGzMA3mdKtp9BLqQmJze_sJ29g1KmpW8L4mgiX26QnnFUxuqfMH_PnsO3SbjoUDiN2Ve9vwtQuJU9cpuj0GT7tvfVo4dBxctuvgBSbcUrh4HzAub0S36g7Y-GignpQAc5kUB5STRbjm3qkJC5DZtMPg8h7sLG1Ztpvszquh_MuN_FVNaGIvlNsDyIAjmpRYxZrUsKNZcFw7tKfuq13TVa_8U0gBDgAoirsY-A2sGbGOtJzhkmGUtvQI1PSeQv8V51xl42A0TfUsUMJxd3LZdHwrUa-bl]--></g></svg>